<svg width="30" height="27" viewBox="0 0 30 27" fill="none" xmlns="http://www.w3.org/2000/svg">
<path d="M13.8029 14.4615V9.84615C13.8029 8.82609 13.4023 7.84781 12.6892 7.12651C11.9761 6.40522 11.0089 6 10.0004 6C8.99196 6 8.02479 6.40522 7.31168 7.12651C6.59858 7.84781 6.19796 8.82609 6.19796 9.84615V14.4615M17.7129 12.4174L18.9936 24.7251C19.0646 25.4072 18.5373 26 17.8589 26H2.14197C1.98197 26.0002 1.82372 25.9663 1.67751 25.9006C1.53129 25.8349 1.40038 25.7388 1.29328 25.6185C1.18617 25.4983 1.10527 25.3566 1.05583 25.2027C1.00639 25.0488 0.98951 24.8861 1.00629 24.7251L2.28798 12.4174C2.31755 12.1339 2.44984 11.8715 2.65936 11.6808C2.86888 11.4901 3.14078 11.3846 3.42265 11.3846H16.5782C17.1623 11.3846 17.6521 11.8308 17.7129 12.4174ZM6.57821 14.4615C6.57821 14.5635 6.53814 14.6614 6.46683 14.7335C6.39552 14.8056 6.29881 14.8462 6.19796 14.8462C6.09711 14.8462 6.00039 14.8056 5.92908 14.7335C5.85777 14.6614 5.81771 14.5635 5.81771 14.4615C5.81771 14.3595 5.85777 14.2617 5.92908 14.1896C6.00039 14.1174 6.09711 14.0769 6.19796 14.0769C6.29881 14.0769 6.39552 14.1174 6.46683 14.1896C6.53814 14.2617 6.57821 14.3595 6.57821 14.4615ZM14.1832 14.4615C14.1832 14.5635 14.1431 14.6614 14.0718 14.7335C14.0005 14.8056 13.9038 14.8462 13.8029 14.8462C13.7021 14.8462 13.6054 14.8056 13.5341 14.7335C13.4627 14.6614 13.4227 14.5635 13.4227 14.4615C13.4227 14.3595 13.4627 14.2617 13.5341 14.1896C13.6054 14.1174 13.7021 14.0769 13.8029 14.0769C13.9038 14.0769 14.0005 14.1174 14.0718 14.1896C14.1431 14.2617 14.1832 14.3595 14.1832 14.4615Z" stroke="black" stroke-width="1.5" stroke-linecap="round" stroke-linejoin="round"/>
<circle cx="21" cy="9" r="9" fill="#FD4B6B"/>
<path d="M21.2315 13.1207C20.6705 13.1184 20.1911 12.9704 19.7933 12.6768C19.3956 12.3833 19.0914 11.956 18.8807 11.3949C18.67 10.8338 18.5646 10.1579 18.5646 9.36719C18.5646 8.57884 18.67 7.9053 18.8807 7.34659C19.0938 6.78788 19.3991 6.36174 19.7969 6.06818C20.197 5.77462 20.6752 5.62784 21.2315 5.62784C21.7879 5.62784 22.2649 5.7758 22.6626 6.07173C23.0604 6.36529 23.3646 6.79143 23.5753 7.35014C23.7884 7.90649 23.8949 8.57884 23.8949 9.36719C23.8949 10.1603 23.7895 10.8374 23.5788 11.3984C23.3681 11.9571 23.0639 12.3845 22.6662 12.6804C22.2685 12.974 21.7902 13.1207 21.2315 13.1207ZM21.2315 12.1726C21.724 12.1726 22.1087 11.9323 22.3857 11.4517C22.665 10.9711 22.8047 10.2763 22.8047 9.36719C22.8047 8.76349 22.7408 8.25331 22.6129 7.83665C22.4875 7.41761 22.3063 7.10038 22.0696 6.88494C21.8352 6.66714 21.5559 6.55824 21.2315 6.55824C20.7415 6.55824 20.3568 6.79972 20.0774 7.28267C19.7981 7.76562 19.6572 8.46046 19.6548 9.36719C19.6548 9.97325 19.7176 10.4858 19.843 10.9048C19.9709 11.3215 20.152 11.6375 20.3864 11.853C20.6207 12.0661 20.9025 12.1726 21.2315 12.1726Z" fill="white"/>
</svg>
