<svg width="13" height="13" viewBox="0 0 13 13" fill="none" xmlns="http://www.w3.org/2000/svg">
<path d="M4.625 6.96875L6.03125 8.375L8.375 5.09375M12.125 6.5C12.125 7.2925 11.7312 7.99375 11.1294 8.4175C11.1942 8.78798 11.1688 9.16863 11.0554 9.52722C10.9419 9.88581 10.7437 10.2118 10.4775 10.4775C10.2118 10.7437 9.88581 10.9419 9.52722 11.0554C9.16863 11.1688 8.78798 11.1942 8.4175 11.1294C8.20139 11.4372 7.91428 11.6884 7.5805 11.8617C7.24672 12.035 6.87609 12.1253 6.5 12.125C5.7075 12.125 5.00625 11.7312 4.5825 11.1294C4.21202 11.1942 3.83138 11.1688 3.4728 11.0553C3.11423 10.9418 2.78826 10.7436 2.5225 10.4775C2.25633 10.2118 2.05811 9.88581 1.94464 9.52722C1.83117 9.16863 1.80578 8.78798 1.87063 8.4175C1.56283 8.20139 1.31164 7.91428 1.13833 7.5805C0.96502 7.24672 0.874695 6.87609 0.875001 6.5C0.875001 5.7075 1.26875 5.00625 1.87063 4.5825C1.80578 4.21202 1.83117 3.83137 1.94464 3.47278C2.05811 3.11419 2.25633 2.78823 2.5225 2.5225C2.78826 2.25637 3.11423 2.05819 3.4728 1.94472C3.83138 1.83125 4.21202 1.80583 4.5825 1.87063C4.79865 1.56286 5.08576 1.3117 5.41954 1.1384C5.75331 0.965095 6.12392 0.874747 6.5 0.875001C7.2925 0.875001 7.99375 1.26875 8.4175 1.87063C8.78798 1.80583 9.16862 1.83125 9.5272 1.94472C9.88577 2.05819 10.2117 2.25637 10.4775 2.5225C10.7436 2.78826 10.9418 3.11423 11.0553 3.4728C11.1688 3.83138 11.1942 4.21202 11.1294 4.5825C11.4372 4.79862 11.6884 5.08572 11.8617 5.4195C12.035 5.75328 12.1253 6.12391 12.125 6.5Z" stroke="black" stroke-width="1.5" stroke-linecap="round" stroke-linejoin="round"/>
</svg>
