<svg width="32" height="32" viewBox="0 0 32 32" fill="none" xmlns="http://www.w3.org/2000/svg">
<path d="M10 11H22M10 15H16M3 17.0133C3 19.1467 4.49733 21.0053 6.60933 21.316C8.11467 21.5373 9.636 21.7067 11.1733 21.8213C11.64 21.856 12.0667 22.1013 12.3267 22.4893L16 28L19.6733 22.4893C19.8022 22.2977 19.973 22.1379 20.1729 22.0222C20.3727 21.9064 20.5963 21.8377 20.8267 21.8213C22.3535 21.7073 23.8758 21.5388 25.3907 21.316C27.5027 21.0053 29 19.148 29 17.012V8.988C29 6.852 27.5027 4.99467 25.3907 4.684C22.2813 4.22762 19.1427 3.99901 16 4C12.8107 4 9.67467 4.23334 6.60933 4.684C4.49733 4.99467 3 6.85334 3 8.988V17.012V17.0133Z" stroke="black" stroke-width="1.5" stroke-linecap="round" stroke-linejoin="round"/>
</svg>
