<svg width="36" height="26" viewBox="0 0 36 26" fill="none" xmlns="http://www.w3.org/2000/svg">
<path d="M21 11.9091C21 9.19818 18.6678 7 15.7911 7C13.6411 7 11.7944 8.22836 11 9.98145C10.2056 8.22836 8.35889 7 6.20778 7C3.33333 7 1 9.19818 1 11.9091C1 19.7855 11 25 11 25C11 25 21 19.7855 21 11.9091Z" stroke="black" stroke-width="1.5" stroke-linecap="round" stroke-linejoin="round"/>
<circle cx="27" cy="9" r="9" fill="#FD4B6B"/>
<path d="M27.2315 13.1207C26.6705 13.1184 26.1911 12.9704 25.7933 12.6768C25.3956 12.3833 25.0914 11.956 24.8807 11.3949C24.67 10.8338 24.5646 10.1579 24.5646 9.36719C24.5646 8.57884 24.67 7.9053 24.8807 7.34659C25.0938 6.78788 25.3991 6.36174 25.7969 6.06818C26.197 5.77462 26.6752 5.62784 27.2315 5.62784C27.7879 5.62784 28.2649 5.7758 28.6626 6.07173C29.0604 6.36529 29.3646 6.79143 29.5753 7.35014C29.7884 7.90649 29.8949 8.57884 29.8949 9.36719C29.8949 10.1603 29.7895 10.8374 29.5788 11.3984C29.3681 11.9571 29.0639 12.3845 28.6662 12.6804C28.2685 12.974 27.7902 13.1207 27.2315 13.1207ZM27.2315 12.1726C27.724 12.1726 28.1087 11.9323 28.3857 11.4517C28.665 10.9711 28.8047 10.2763 28.8047 9.36719C28.8047 8.76349 28.7408 8.25331 28.6129 7.83665C28.4875 7.41761 28.3063 7.10038 28.0696 6.88494C27.8352 6.66714 27.5559 6.55824 27.2315 6.55824C26.7415 6.55824 26.3568 6.79972 26.0774 7.28267C25.7981 7.76562 25.6572 8.46046 25.6548 9.36719C25.6548 9.97325 25.7176 10.4858 25.843 10.9048C25.9709 11.3215 26.152 11.6375 26.3864 11.853C26.6207 12.0661 26.9025 12.1726 27.2315 12.1726Z" fill="white"/>
</svg>
