<svg width="116" height="116" viewBox="0 0 116 116" fill="none" xmlns="http://www.w3.org/2000/svg">
<circle cx="58" cy="58" r="48" fill="#A7E9FF"/>
<circle cx="58" cy="58" r="57.5" stroke="#A7E9FF" stroke-dasharray="7 7"/>
<g clip-path="url(#clip0_402_4471)">
<path d="M72.2023 38.7997H68.1992C68.1805 37.8528 67.993 36.9247 67.6461 36.0435C67.2055 34.7966 66.0055 33.9716 64.6836 33.9997C63.0805 34.0653 61.8336 35.1153 60.7367 36.0341C59.0492 37.5903 56.893 38.5372 54.5961 38.7341V36.3997C54.5961 35.0778 53.518 33.9997 52.1961 33.9997H51.3992C50.0773 33.9997 48.9992 35.0778 48.9992 36.3997V38.7997H46.5992C45.2773 38.7997 44.1992 39.8778 44.1992 41.1997V41.9966C44.1992 43.3185 45.2773 44.3966 46.5992 44.3966H48.9992V66.7935H46.5992C45.718 66.7935 44.9961 67.506 44.9961 68.3966V80.3966C44.9961 81.2778 45.7086 81.9997 46.5992 81.9997H52.6742C53.0961 81.9997 53.4992 81.831 53.7992 81.531L55.7305 79.5997H66.2773L68.2086 81.531C68.5086 81.831 68.9117 81.9997 69.3336 81.9997H75.4086C76.2898 81.9997 77.0117 81.2872 77.0117 80.3966V68.3966C77.0117 67.5153 76.2992 66.7935 75.4086 66.7935H74.6117V61.1966C74.6117 60.756 74.2555 60.3997 73.8148 60.3997H70.618C70.2617 60.3997 70.4211 60.3528 67.4211 62.6028C64.6086 60.4935 64.5992 60.3997 64.2242 60.3997H60.9992C60.5586 60.3997 60.2023 60.756 60.2023 61.1966V66.7935H54.6055V44.3966H64.2055V49.1966C63.7648 49.1966 63.4086 49.5528 63.4086 49.9935C63.4086 50.4341 63.7648 50.7903 64.2055 50.7903H64.5055L66.6055 54.981V60.3903C66.6055 60.831 66.9617 61.1872 67.4023 61.1872C67.843 61.1872 68.1992 60.831 68.1992 60.3903V54.981L70.2992 50.7903H70.5992C71.0398 50.7903 71.3961 50.4341 71.3961 49.9935C71.3961 49.5528 71.0398 49.1966 70.5992 49.1966V44.3966H72.2023C73.5242 44.3966 74.6023 43.3185 74.6023 41.9966V41.1997C74.6023 39.8778 73.5242 38.7997 72.2023 38.7997ZM64.7398 35.6028C66.1273 35.5185 66.5023 37.4216 66.568 38.7997H59.6117C61.843 37.5435 63.0336 35.6591 64.7398 35.6028ZM50.6023 36.3997C50.6023 35.9591 50.9586 35.6028 51.3992 35.6028H52.1961C52.6367 35.6028 52.993 35.9591 52.993 36.3997V38.7997H50.593V36.3997H50.6023ZM75.3992 80.3966H69.3242L67.393 78.4653C67.093 78.1653 66.6898 77.9966 66.268 77.9966H55.7305C55.3086 77.9966 54.9055 78.1653 54.6055 78.4653L52.6742 80.3966H46.5992V68.3966H75.3992V80.3966ZM61.7961 62.0028H63.9336L66.9148 64.2435C67.1961 64.4591 67.5898 64.4591 67.8711 64.2435L70.8523 62.0028H72.9992V66.8028H61.7961V62.0028ZM53.0023 66.8028H50.6023V44.3966H53.0023V66.8028ZM67.4023 53.0122L66.2961 50.7997H68.4992L67.4023 53.0122ZM68.9961 49.1966H65.7992V44.3966H68.9961V49.1966ZM72.9992 41.9966C72.9992 42.4372 72.643 42.7935 72.2023 42.7935H46.5992C46.1586 42.7935 45.8023 42.4372 45.8023 41.9966V41.1997C45.8023 40.7591 46.1586 40.4028 46.5992 40.4028H72.2023C72.643 40.4028 72.9992 40.7591 72.9992 41.1997V41.9966Z" fill="#0089B7"/>
<path d="M57.2305 52.6283C57.0805 52.7783 56.9961 52.9846 56.9961 53.2002C56.9961 53.4158 57.0805 53.6221 57.2305 53.7721L62.0305 58.5721C62.3398 58.8814 62.8555 58.8814 63.1648 58.5721C63.4742 58.2627 63.4742 57.7471 63.1648 57.4377L58.3648 52.6377C58.2148 52.4877 58.0086 52.4033 57.793 52.4033C57.5773 52.4033 57.3805 52.4783 57.2305 52.6283Z" fill="#0089B7"/>
<path d="M72.203 58.7963C72.4187 58.7963 72.6155 58.7119 72.7749 58.5619L77.5749 53.7619C77.8843 53.4525 77.8843 52.9369 77.5749 52.6275C77.2655 52.3182 76.7499 52.3182 76.4405 52.6275L71.6405 57.4275C71.4062 57.6525 71.3405 57.9994 71.4624 58.2994C71.5843 58.6088 71.8749 58.8057 72.203 58.7963Z" fill="#0089B7"/>
<path d="M63.8102 55.4871C64.1946 55.2621 64.3165 54.7746 64.0915 54.3902L61.6915 50.3871C61.5696 50.1058 61.2884 49.9277 60.9884 49.9183C60.679 49.909 60.3977 50.0777 60.2571 50.3402C60.1165 50.6121 60.1352 50.9402 60.3134 51.184L62.7134 55.1871C62.8165 55.3746 62.9946 55.5058 63.2009 55.5621C63.3977 55.6277 63.6227 55.5902 63.8102 55.4871Z" fill="#0089B7"/>
<path d="M72.0899 55.206L74.4899 51.2029C74.6587 50.8279 74.518 50.3873 74.1618 50.181C73.8055 49.9748 73.3555 50.0685 73.1118 50.406L70.7118 54.4091C70.5337 54.6529 70.5055 54.981 70.6555 55.2529C70.7962 55.5248 71.0868 55.6841 71.3868 55.6748C71.6868 55.6654 71.9587 55.4873 72.0899 55.206Z" fill="#0089B7"/>
<path d="M72.9977 70H70.5977C70.157 70 69.8008 70.3563 69.8008 70.7969C69.8008 71.2375 70.157 71.5938 70.5977 71.5938H72.9977C73.4383 71.5938 73.7945 71.2375 73.7945 70.7969C73.7945 70.3563 73.4383 70 72.9977 70Z" fill="#0089B7"/>
<path d="M72.9977 73.1963H70.5977C70.157 73.1963 69.8008 73.5525 69.8008 73.9932C69.8008 74.4338 70.157 74.79 70.5977 74.79H72.9977C73.4383 74.79 73.7945 74.4338 73.7945 73.9932C73.7945 73.5525 73.4383 73.1963 72.9977 73.1963Z" fill="#0089B7"/>
<path d="M33.8023 64.4033H35.4055V80.4064C35.4055 81.2877 36.118 82.0096 37.0086 82.0096H41.8086C42.6898 82.0096 43.4117 81.2971 43.4117 80.4064V64.4033H45.0148C45.8961 64.4033 46.618 63.6908 46.618 62.8002V54.8033C46.618 53.9221 45.9055 53.2002 45.0148 53.2002H33.8023C32.9211 53.2002 32.1992 53.9127 32.1992 54.8033V62.8002C32.1992 63.6814 32.9117 64.4033 33.8023 64.4033ZM41.7992 80.3971H36.9992V64.4033H41.7992V80.3971ZM33.8023 54.8033H45.0055V62.8002H33.8023V54.8033Z" fill="#0089B7"/>
<path d="M40.1953 58H41.7984C42.2391 58 42.5953 57.6437 42.5953 57.2031C42.5953 56.7625 42.2391 56.4062 41.7984 56.4062H40.1953C39.7547 56.4062 39.3984 56.7625 39.3984 57.2031C39.3984 57.6437 39.7547 58 40.1953 58Z" fill="#0089B7"/>
<path d="M40.1953 61.1963H41.7984C42.2391 61.1963 42.5953 60.84 42.5953 60.3994C42.5953 59.9588 42.2391 59.6025 41.7984 59.6025H40.1953C39.7547 59.6025 39.3984 59.9588 39.3984 60.3994C39.3984 60.84 39.7547 61.1963 40.1953 61.1963Z" fill="#0089B7"/>
<path d="M36.5484 57.8593C36.8203 58.0562 37.1765 58.0562 37.4578 57.878C37.739 57.6905 37.8703 57.3624 37.7953 57.0343C37.7296 56.678 37.439 56.4062 37.0734 56.3687C36.7078 56.3405 36.3703 56.5562 36.2484 56.903C36.1265 57.2499 36.2578 57.6343 36.5578 57.8312L36.5484 57.8593Z" fill="#0089B7"/>
<path d="M36.5477 61.0653C36.8477 61.2716 37.2602 61.2435 37.532 60.9997C37.8039 60.756 37.8789 60.3528 37.7008 60.0341C37.5227 59.7153 37.157 59.5466 36.8008 59.631C36.4445 59.7153 36.1914 60.0435 36.1914 60.4091C36.2008 60.6622 36.332 60.9153 36.5477 61.0653Z" fill="#0089B7"/>
<path d="M49.7969 70H49C48.5594 70 48.2031 70.3563 48.2031 70.7969C48.2031 71.2375 48.5594 71.5938 49 71.5938H49.7969C50.2375 71.5938 50.5938 71.2375 50.5938 70.7969C50.5938 70.3563 50.2375 70 49.7969 70Z" fill="#0089B7"/>
<path d="M59.3953 70H52.9922C52.5516 70 52.1953 70.3563 52.1953 70.7969C52.1953 71.2375 52.5516 71.5938 52.9922 71.5938H59.3953C59.8359 71.5938 60.1922 71.2375 60.1922 70.7969C60.1922 70.3563 59.8359 70 59.3953 70Z" fill="#0089B7"/>
</g>
<defs>
<clipPath id="clip0_402_4471">
<rect width="48" height="48" fill="white" transform="translate(31 34)"/>
</clipPath>
</defs>
</svg>
