<svg width="116" height="116" viewBox="0 0 116 116" fill="none" xmlns="http://www.w3.org/2000/svg">
<circle cx="58" cy="58" r="48" fill="#A7E9FF"/>
<circle cx="58" cy="58" r="57.5" stroke="#A7E9FF" stroke-dasharray="7 7"/>
<g clip-path="url(#clip0_402_4491)">
<path d="M80.5 35.75H35.5C35.0875 35.75 34.75 36.0875 34.75 36.5V39.5C34.75 39.9125 35.0875 40.25 35.5 40.25H45.6906L49.975 44.5344C50.1156 44.675 50.3031 44.75 50.5094 44.75H52.0094V47V61.25C52.0094 61.4 52.0656 61.5406 52.15 61.6625L52.1406 61.6719L55.0656 66.0687L55.7875 68.9375C55.8719 69.275 56.1719 69.5094 56.5187 69.5094H57.2687V76.2594H58.7688V69.5094H59.5188C59.8656 69.5094 60.1656 69.275 60.25 68.9375L60.9719 66.0687L63.8969 61.6719L63.8875 61.6625C63.9625 61.5406 64.0281 61.4094 64.0281 61.25V47V44.75H65.5281C65.725 44.75 65.9219 44.675 66.0625 44.5344L70.3094 40.25H80.5C80.9125 40.25 81.25 39.9125 81.25 39.5V36.5C81.25 36.0875 80.9125 35.75 80.5 35.75ZM46.3094 38.75L44.8094 37.25H47.1906L48.6906 38.75H46.3094ZM44.1906 38.75H41.8094L40.3094 37.25H42.6906L44.1906 38.75ZM50.8094 38.75L49.3094 37.25H51.6906L53.1906 38.75H50.8094ZM55.3094 38.75L53.8094 37.25H56.1906L57.6906 38.75H55.3094ZM59.8094 38.75L58.3094 37.25H60.6906L62.1906 38.75H59.8094ZM64.3094 38.75L62.8094 37.25H65.1906L66.6906 38.75H64.3094ZM68.8094 38.75L67.3094 37.25H69.6906L71.1906 38.75H68.8094ZM71.8094 37.25H74.1906L75.6906 38.75H73.3094L71.8094 37.25ZM36.25 37.25H38.1906L39.6906 38.75H36.25V37.25ZM57.25 53.75H58.75V56C58.75 56.4125 58.4125 56.75 58 56.75C57.5875 56.75 57.25 56.4125 57.25 56V53.75ZM58.75 52.25H57.25V47.75H58.75V52.25ZM58 58.25C59.2375 58.25 60.25 57.2375 60.25 56V47.75H62.5V60.5H53.5V47.75H55.75V56C55.75 57.2375 56.7625 58.25 58 58.25ZM56.1531 65L54.1562 62H57.25V63.5H58.75V62H61.8531L59.8562 65H56.1531ZM57.0812 68L56.7062 66.5H59.2844L58.9094 68H57.0812ZM62.5 46.25H53.5V44.75H62.5V46.25ZM65.1906 43.25H50.8094L47.8094 40.25H68.1906L65.1906 43.25ZM79.75 38.75H77.8094L76.3094 37.25H79.75V38.75Z" fill="#0089B7"/>
<path d="M56.5 77.75H37C35.7625 77.75 34.75 78.7625 34.75 80C34.75 81.2375 35.7625 82.25 37 82.25H56.5C56.9125 82.25 57.25 81.9125 57.25 81.5V78.5C57.25 78.0875 56.9125 77.75 56.5 77.75ZM55.75 80.75H37C36.5875 80.75 36.25 80.4125 36.25 80C36.25 79.5875 36.5875 79.25 37 79.25H55.75V80.75Z" fill="#0089B7"/>
<path d="M79 77.75H59.5C59.0875 77.75 58.75 78.0875 58.75 78.5V81.5C58.75 81.9125 59.0875 82.25 59.5 82.25H79C80.2375 82.25 81.25 81.2375 81.25 80C81.25 78.7625 80.2375 77.75 79 77.75ZM79 80.75H60.25V79.25H79C79.4125 79.25 79.75 79.5875 79.75 80C79.75 80.4125 79.4125 80.75 79 80.75Z" fill="#0089B7"/>
<path d="M59.7148 75.7158L62.7148 72.7158L63.7742 73.7752L60.7742 76.7752L59.7148 75.7158Z" fill="#0089B7"/>
<path d="M52.2148 73.7752L53.2742 72.7158L56.2742 75.7158L55.2148 76.7752L52.2148 73.7752Z" fill="#0089B7"/>
<path d="M48.25 74.75H51.25V76.25H48.25V74.75Z" fill="#0089B7"/>
<path d="M64.75 74.75H67.75V76.25H64.75V74.75Z" fill="#0089B7"/>
</g>
<defs>
<clipPath id="clip0_402_4491">
<rect width="48" height="48" fill="white" transform="translate(34 35)"/>
</clipPath>
</defs>
</svg>
