<svg width="38" height="38" viewBox="0 0 38 38" fill="none" xmlns="http://www.w3.org/2000/svg">
<path d="M18.8933 7.125C7.979 7.125 7.125 7.97959 7.125 18.8933V19.1067C7.125 30.0204 7.979 30.875 18.8933 30.875H19.1067C30.021 30.875 30.875 30.0204 30.875 19.1067V19C30.875 7.98712 30.0129 7.125 19 7.125H18.8933ZM26.1215 10.6875C26.7776 10.6857 27.3107 11.2154 27.3125 11.8715C27.3143 12.5276 26.7846 13.0607 26.1285 13.0625C25.4724 13.0643 24.9393 12.5346 24.9375 11.8785C24.9357 11.2224 25.4654 10.6893 26.1215 10.6875ZM18.9861 13.0625C22.2648 13.0548 24.9298 15.7074 24.9375 18.9861C24.9452 22.2648 22.2926 24.9298 19.0139 24.9375C15.7352 24.9452 13.0702 22.2926 13.0625 19.0139C13.0548 15.7352 15.7074 13.0702 18.9861 13.0625ZM18.9919 15.4375C17.0242 15.4423 15.4327 17.0416 15.4375 19.0093C15.4423 20.9764 17.041 22.5673 19.0081 22.5625C20.9758 22.5577 22.5673 20.959 22.5625 18.9919C22.5577 17.0242 20.959 15.4327 18.9919 15.4375Z" fill="black"/>
</svg>
