<svg width="12" height="14" viewBox="0 0 12 14" fill="none" xmlns="http://www.w3.org/2000/svg">
<path fill-rule="evenodd" clip-rule="evenodd" d="M7.25935 0.0592864C7.35086 0.110222 7.42268 0.190337 7.46334 0.286851C7.50401 0.383366 7.51119 0.490719 7.48372 0.591786L6.23872 5.15616H10.7812C10.8726 5.15617 10.9619 5.18286 11.0383 5.23297C11.1147 5.28308 11.1748 5.35442 11.2112 5.43821C11.2475 5.522 11.2586 5.6146 11.2431 5.70462C11.2276 5.79464 11.1861 5.87816 11.1237 5.94491L4.56122 12.9762C4.48974 13.0529 4.39459 13.1035 4.29099 13.1198C4.18738 13.136 4.08131 13.1171 3.98973 13.066C3.89815 13.0149 3.82636 12.9345 3.78584 12.8378C3.74532 12.7411 3.73841 12.6335 3.76622 12.5324L5.01122 7.96866H0.468721C0.37737 7.96866 0.288011 7.94196 0.21163 7.89185C0.135248 7.84174 0.0751722 7.77041 0.0387871 7.68661C0.00240198 7.60282 -0.00870673 7.51022 0.00682664 7.4202C0.02236 7.33018 0.0638584 7.24666 0.126221 7.17991L6.68872 0.148661C6.7602 0.0721902 6.85522 0.0218443 6.95863 0.0056467C7.06205 -0.0105509 7.16791 0.00833211 7.25935 0.0592864Z" fill="#06B3EC"/>
</svg>
