<svg width="194" height="74" viewBox="0 0 194 74" fill="none" xmlns="http://www.w3.org/2000/svg">
<path d="M189.597 3.09375H3.21484V70.9035H189.597V3.09375Z" fill="#010101"/>
<path d="M15.6345 49.7744C15.1495 49.5364 15.1172 49.3948 15.1172 48.4682C15.1172 46.7501 15.253 45.3731 15.2918 44.8261C15.3241 44.4464 15.3953 44.2791 15.5699 44.2791C15.7768 44.2791 15.8091 44.3821 15.8091 44.6588C15.8091 44.9677 15.8091 45.4503 15.9126 45.9329C16.4299 48.4746 18.7127 49.4398 21.0213 49.4398C24.3387 49.4398 25.9618 47.0718 25.9618 44.8711C25.9618 42.4967 24.9595 41.1261 21.9913 38.6873L20.4393 37.4132C16.7791 34.4211 15.9514 32.2911 15.9514 29.9553C15.9514 26.281 18.7127 23.7715 23.1035 23.7715C24.4486 23.7715 25.4509 23.9066 26.3175 24.1125C26.9706 24.2477 27.2487 24.2863 27.5267 24.2863C27.8048 24.2863 27.8695 24.3571 27.8695 24.5244C27.8695 24.6981 27.7337 25.8306 27.7337 28.1664C27.7337 28.7134 27.6625 28.9579 27.4944 28.9579C27.2875 28.9579 27.2551 28.7842 27.2163 28.5139C27.184 28.1021 26.9771 27.1755 26.7701 26.7958C26.5632 26.4162 25.632 24.9748 22.4504 24.9748C20.0642 24.9748 18.2018 26.4548 18.2018 28.9579C18.2018 30.9141 19.1007 32.156 22.4181 34.7299L23.3881 35.4828C27.4621 38.6809 28.4321 40.8108 28.4321 43.5584C28.4321 44.9677 27.8824 47.5802 25.4962 49.2661C24.0089 50.2957 22.1465 50.7075 20.2841 50.7075C18.6351 50.7011 17.0507 50.463 15.6345 49.7744Z" fill="white"/>
<path d="M46.9734 41.3176C46.9734 39.4644 46.6307 38.705 46.178 37.7077C45.9387 37.1607 41.3086 29.5998 40.0993 27.811C39.2328 26.5369 38.3727 25.6811 37.7519 25.2692C37.2346 24.9282 36.575 24.7223 36.2646 24.7223C36.09 24.7223 35.9219 24.6515 35.9219 24.4842C35.9219 24.349 36.0577 24.2461 36.3681 24.2461C37.0212 24.2461 39.6143 24.3491 39.7889 24.3491C40.0282 24.3491 41.3409 24.2461 42.6925 24.2461C43.074 24.2461 43.1387 24.349 43.1387 24.4842C43.1387 24.6193 42.9317 24.6579 42.6213 24.793C42.3433 24.9282 42.1751 25.1341 42.1751 25.4108C42.1751 25.8226 42.3497 26.2344 42.6213 26.7492C43.171 27.7466 48.3573 36.6137 48.9781 37.6111C49.6312 36.1697 54.0221 28.641 54.714 27.5085C55.1602 26.7878 55.3025 26.2023 55.3025 25.7583C55.3025 25.2757 55.1667 24.9024 54.7528 24.793C54.4424 24.6901 54.2355 24.6193 54.2355 24.452C54.2355 24.3169 54.4424 24.2461 54.7851 24.2461C55.684 24.2461 56.7898 24.3491 57.0614 24.3491C57.2683 24.3491 59.758 24.2461 60.4111 24.2461C60.6504 24.2461 60.8573 24.3169 60.8573 24.452C60.8573 24.6257 60.6827 24.7287 60.4111 24.7287C60.0296 24.7287 59.3765 24.8638 58.8203 25.2113C58.1284 25.6231 57.7469 26.035 56.9903 26.9616C55.8521 28.3386 51.0151 36.4143 50.3943 37.8878C49.8769 39.1233 49.8769 40.1915 49.8769 41.324V44.2776C49.8769 44.8245 49.8769 46.2724 49.9804 47.7137C50.0515 48.7111 50.3619 49.464 51.3966 49.6056C51.8816 49.6763 52.6382 49.7407 52.9486 49.7407C53.1555 49.7407 53.2267 49.8437 53.2267 49.9466C53.2267 50.1204 53.0521 50.2233 52.677 50.2233C50.7758 50.2233 48.603 50.1204 48.4284 50.1204C48.2538 50.1204 46.081 50.2233 45.0463 50.2233C44.6648 50.2233 44.4967 50.1525 44.4967 49.9466C44.4967 49.8437 44.5678 49.7407 44.7747 49.7407C45.0851 49.7407 45.499 49.6699 45.8094 49.6056C46.5013 49.4704 46.8117 48.7111 46.8829 47.7137C46.9863 46.2724 46.9863 44.8245 46.9863 44.2776V41.3176H46.9734Z" fill="white"/>
<path d="M74.2348 40.3213C74.2348 45.3726 74.3706 47.5733 74.9914 48.1911C75.541 48.738 76.4399 48.9826 79.1365 48.9826C80.9665 48.9826 82.4862 48.9504 83.3139 47.953C83.7601 47.406 84.1093 46.5438 84.2128 45.8874C84.2451 45.6107 84.3163 45.4434 84.5232 45.4434C84.6978 45.4434 84.7301 45.5786 84.7301 45.9582C84.7301 46.3379 84.4909 48.397 84.2128 49.3944C83.9735 50.1859 83.8701 50.321 82.04 50.321C79.5504 50.321 77.7591 50.2502 76.3041 50.218C74.8555 50.1472 73.7821 50.1151 72.7798 50.1151C72.644 50.1151 72.0555 50.1472 71.3635 50.1472C70.6716 50.1794 69.915 50.218 69.3977 50.218C69.0161 50.218 68.848 50.1472 68.848 49.9413C68.848 49.8384 68.9192 49.7354 69.1261 49.7354C69.4365 49.7354 69.8503 49.6646 70.1607 49.6003C70.8527 49.4652 71.0208 48.7059 71.1631 47.7085C71.3377 46.2671 71.3377 43.5516 71.3377 40.2506V34.2019C71.3377 28.8417 71.3377 27.8765 71.2665 26.7761C71.1954 25.605 70.9238 25.058 69.7792 24.8199C69.5012 24.7492 68.9127 24.717 68.6023 24.717C68.4665 24.717 68.3242 24.6462 68.3242 24.5111C68.3242 24.3052 68.4988 24.2344 68.8739 24.2344C70.4259 24.2344 72.6052 24.3373 72.7733 24.3373C72.9479 24.3373 75.4699 24.2344 76.5045 24.2344C76.8861 24.2344 77.0542 24.3052 77.0542 24.5111C77.0542 24.6462 76.9184 24.717 76.7762 24.717C76.5369 24.717 76.0519 24.7492 75.638 24.8199C74.6357 24.9937 74.3576 25.5728 74.2929 26.7761C74.2218 27.8765 74.2218 28.8352 74.2218 34.2019V40.3213H74.2348Z" fill="white"/>
<path d="M103.327 46.0284C105.332 41.4211 109.956 29.4331 110.719 26.9557C110.893 26.4409 111.029 25.9583 111.029 25.6495C111.029 25.3728 110.926 25.0317 110.583 24.858C110.169 24.7228 109.652 24.7228 109.27 24.7228C109.063 24.7228 108.889 24.6907 108.889 24.5169C108.889 24.311 109.096 24.2402 109.645 24.2402C111.029 24.2402 112.614 24.3432 113.027 24.3432C113.234 24.3432 114.722 24.2402 115.724 24.2402C116.106 24.2402 116.313 24.311 116.313 24.4783C116.313 24.6456 116.177 24.7164 115.899 24.7164C115.659 24.7164 114.896 24.7164 114.243 25.1282C113.797 25.4371 113.273 26.0227 112.342 28.3585C111.96 29.3237 110.234 33.442 108.475 37.6696C106.367 42.6888 104.815 46.4016 104.019 48.0811C103.049 50.1467 102.914 50.6936 102.571 50.6936C102.157 50.6936 101.982 50.211 101.329 48.5637L92.8709 27.4962C92.1143 25.5722 91.5905 25.1926 90.3877 24.8515C89.8703 24.7164 89.2819 24.7164 89.0749 24.7164C88.868 24.7164 88.7969 24.6135 88.7969 24.4783C88.7969 24.2724 89.1396 24.2402 89.6957 24.2402C91.3512 24.2402 93.3235 24.3432 93.7374 24.3432C94.0801 24.3432 95.6386 24.2402 96.9513 24.2402C97.5721 24.2402 97.8825 24.311 97.8825 24.4783C97.8825 24.6456 97.7791 24.7164 97.5398 24.7164C97.1583 24.7164 96.5375 24.7486 96.2271 24.8901C95.8455 25.0639 95.7809 25.3341 95.7809 25.5787C95.7809 26.0227 96.1947 27.0908 96.7121 28.4293L103.327 46.0284Z" fill="white"/>
<path d="M129.455 25.0962C129.869 23.9637 130.005 23.7578 130.218 23.7578C130.425 23.7578 130.561 23.9316 130.975 24.9933C131.492 26.2996 136.917 40.4947 139.019 45.7133C140.261 48.7698 141.263 49.3232 141.987 49.5291C142.505 49.7029 143.022 49.735 143.371 49.735C143.578 49.735 143.714 49.7672 143.714 49.9409C143.714 50.1469 143.403 50.2176 143.022 50.2176C142.505 50.2176 139.983 50.2176 137.603 50.1469C136.95 50.1147 136.568 50.1147 136.568 49.9088C136.568 49.7736 136.672 49.7029 136.807 49.6707C137.014 49.5999 137.221 49.291 137.014 48.7441L133.8 40.2888C133.729 40.1536 133.665 40.0829 133.49 40.0829H126.066C125.892 40.0829 125.788 40.1858 125.724 40.3596L123.654 46.4404C123.344 47.3027 123.169 48.1263 123.169 48.7441C123.169 49.4326 123.894 49.7415 124.482 49.7415H124.825C125.064 49.7415 125.167 49.8123 125.167 49.9474C125.167 50.1533 124.961 50.2241 124.65 50.2241C123.822 50.2241 122.335 50.1211 121.954 50.1211C121.572 50.1211 119.677 50.2241 118.054 50.2241C117.608 50.2241 117.395 50.1533 117.395 49.9474C117.395 49.8123 117.53 49.7415 117.705 49.7415C117.944 49.7415 118.429 49.7093 118.707 49.6707C120.298 49.4648 120.984 48.1585 121.611 46.4404L129.455 25.0962ZM133.044 38.8409C133.218 38.8409 133.218 38.738 133.18 38.6029L129.901 29.3239C129.726 28.8091 129.558 28.8091 129.384 29.3239L126.344 38.6029C126.273 38.7766 126.344 38.8409 126.448 38.8409H133.044Z" fill="white"/>
<path d="M155.197 45.546C155.268 48.3644 155.611 49.2589 156.542 49.5291C157.195 49.7029 157.958 49.735 158.268 49.735C158.443 49.735 158.546 49.8058 158.546 49.9409C158.546 50.1469 158.34 50.2176 157.926 50.2176C155.96 50.2176 154.576 50.1147 154.266 50.1147C153.955 50.1147 152.507 50.2176 150.948 50.2176C150.605 50.2176 150.398 50.1855 150.398 49.9409C150.398 49.8058 150.502 49.735 150.676 49.735C150.955 49.735 151.575 49.7029 152.093 49.5291C152.953 49.291 153.127 48.2936 153.127 45.1663L153.16 25.4759C153.16 24.1375 153.263 23.7578 153.541 23.7578C153.819 23.7578 154.401 24.5171 154.751 24.8582C155.268 25.4437 160.415 30.9776 165.731 36.6467C169.152 40.2888 172.915 44.4843 174.021 45.6168L173.64 28.1592C173.607 25.9263 173.362 25.167 172.295 24.8968C171.674 24.7616 170.878 24.723 170.6 24.723C170.361 24.723 170.322 24.6201 170.322 24.4849C170.322 24.279 170.6 24.2469 171.014 24.2469C172.566 24.2469 174.228 24.3498 174.603 24.3498C174.985 24.3498 176.123 24.2469 177.539 24.2469C177.921 24.2469 178.16 24.279 178.16 24.4849C178.16 24.6201 178.024 24.723 177.778 24.723C177.604 24.723 177.364 24.723 176.951 24.826C175.812 25.0641 175.67 25.8234 175.67 27.8825L175.599 48.0234C175.599 50.2884 175.528 50.4622 175.289 50.4622C175.011 50.4622 174.597 50.0825 172.767 48.2615C172.385 47.9204 167.412 42.8691 163.752 38.9503C159.749 34.6519 155.843 30.3213 154.738 29.0858L155.197 45.546Z" fill="white"/>
<path d="M81.6936 17.7278V18.0431H78.3633V13.2363H81.5901V13.5516H78.7125V15.4435H81.2862V15.7523H78.7125V17.7214H81.6936V17.7278Z" fill="white"/>
<path d="M83.3828 17.4263L83.5445 17.1625C83.8743 17.5035 84.4886 17.7673 85.1353 17.7673C86.0988 17.7673 86.5256 17.3491 86.5256 16.8279C86.5256 15.3865 83.5121 16.2487 83.5121 14.4792C83.5121 13.7971 84.0359 13.2051 85.2258 13.2051C85.7561 13.2051 86.3057 13.3724 86.6808 13.6362L86.5515 13.9193C86.1505 13.6426 85.6591 13.5139 85.2258 13.5139C84.2881 13.5139 83.8678 13.9451 83.8678 14.4727C83.8678 15.9141 86.8813 15.0647 86.8813 16.8086C86.8813 17.4906 86.3381 18.0762 85.1417 18.0762C84.4239 18.0762 83.732 17.8124 83.3828 17.4263Z" fill="white"/>
<path d="M89.8177 13.5516H88.0781V13.2363H91.9064V13.5516H90.1669V18.0431H89.8177V13.5516Z" fill="white"/>
<path d="M93.0039 17.7739C93.0039 17.6066 93.1332 17.4844 93.2949 17.4844C93.4566 17.4844 93.5859 17.6066 93.5859 17.7739C93.5859 17.9412 93.4566 18.0699 93.2949 18.0699C93.1397 18.0699 93.0039 17.9412 93.0039 17.7739Z" fill="white"/>
<path d="M99.1277 13.2363V18.0431H98.7785V13.5516H97.6016V13.2363H99.1277Z" fill="white"/>
<path d="M104.631 15.6117C104.631 17.2397 103.764 18.0762 102.484 18.0762C102.07 18.0762 101.682 18.0054 101.385 17.8317L101.527 17.5486C101.773 17.7094 102.115 17.7673 102.477 17.7673C103.557 17.7673 104.269 17.0595 104.269 15.6696C104.269 15.528 104.262 15.3157 104.23 15.0905C104.029 15.7211 103.422 16.0814 102.691 16.0814C101.727 16.0814 101.074 15.5152 101.074 14.6529C101.074 13.7713 101.76 13.2051 102.684 13.2051C103.958 13.2051 104.631 14.1124 104.631 15.6117ZM104.088 14.6336C104.088 14.0673 103.609 13.5075 102.71 13.5075C101.96 13.5075 101.443 13.9515 101.443 14.6465C101.443 15.335 101.941 15.779 102.756 15.779C103.538 15.779 104.088 15.2771 104.088 14.6336Z" fill="white"/>
<path d="M109.46 16.6596C109.46 17.464 108.904 18.0817 107.772 18.0817C107.068 18.0817 106.414 17.8179 106.078 17.4382L106.259 17.168C106.55 17.5026 107.119 17.76 107.772 17.76C108.665 17.76 109.117 17.316 109.117 16.6725C109.117 15.984 108.697 15.5657 107.384 15.5657H106.408L106.66 13.2363H109.221V13.5516H106.958L106.77 15.244H107.462C108.923 15.2504 109.46 15.8038 109.46 16.6596Z" fill="white"/>
<path d="M114.408 15.6117C114.408 17.2397 113.542 18.0762 112.261 18.0762C111.847 18.0762 111.459 18.0054 111.162 17.8317L111.304 17.5486C111.55 17.7094 111.893 17.7673 112.255 17.7673C113.335 17.7673 114.046 17.0595 114.046 15.6696C114.046 15.528 114.04 15.3157 114.007 15.0905C113.807 15.7211 113.199 16.0814 112.468 16.0814C111.505 16.0814 110.852 15.5152 110.852 14.6529C110.852 13.7713 111.537 13.2051 112.462 13.2051C113.742 13.2051 114.408 14.1124 114.408 15.6117ZM113.865 14.6336C113.865 14.0673 113.386 13.5075 112.488 13.5075C111.737 13.5075 111.22 13.9515 111.22 14.6465C111.22 15.335 111.718 15.779 112.533 15.779C113.322 15.779 113.865 15.2771 113.865 14.6336Z" fill="white"/>
<path d="M37.6936 58.8395H38.0299V60.6348C37.5966 61.0467 36.9693 61.2526 36.3032 61.2526C34.8482 61.2526 33.7812 60.2166 33.7812 58.8138C33.7812 57.411 34.8482 56.375 36.3097 56.375C37.0081 56.375 37.6224 56.5938 38.0492 57.0313L37.8294 57.263C37.409 56.8512 36.9046 56.6903 36.3162 56.6903C35.0616 56.6903 34.1304 57.5976 34.1304 58.8073C34.1304 60.0107 35.0616 60.9244 36.3162 60.9244C36.827 60.9244 37.2926 60.8021 37.6871 60.4868V58.8395H37.6936Z" fill="white"/>
<path d="M40.8867 58.8216C40.8867 57.4252 41.9537 56.3828 43.3958 56.3828C44.8314 56.3828 45.9049 57.4188 45.9049 58.8216C45.9049 60.2244 44.8314 61.2604 43.3958 61.2604C41.9537 61.2539 40.8867 60.2115 40.8867 58.8216ZM45.5492 58.8216C45.5492 57.6054 44.6245 56.7046 43.3958 56.7046C42.1607 56.7046 41.2359 57.6054 41.2359 58.8216C41.2359 60.0378 42.1607 60.9386 43.3958 60.9386C44.6245 60.9322 45.5492 60.0378 45.5492 58.8216Z" fill="white"/>
<path d="M48.9062 56.4141H49.2555V60.9055H52.0361V61.2208H48.9062V56.4141Z" fill="white"/>
<path d="M54.7188 56.4141H56.6264C58.159 56.4141 59.1937 57.4179 59.1937 58.8142C59.1937 60.2106 58.159 61.2144 56.6264 61.2144H54.7188V56.4141ZM56.6005 60.9055C57.965 60.9055 58.8445 60.0433 58.8445 58.8207C58.8445 57.5981 57.9715 56.7358 56.6005 56.7358H55.068V60.912H56.6005V60.9055Z" fill="white"/>
<path d="M70.8615 61.2195L69.7104 59.6108C69.5617 59.6301 69.4065 59.6429 69.2383 59.6429H67.8609V61.213H67.5117V56.4062H69.2448C70.4605 56.4062 71.1912 57.0111 71.1912 58.0278C71.1912 58.7871 70.7774 59.3212 70.0596 59.5335L71.2689 61.213H70.8615V61.2195ZM69.2448 59.3405C70.2795 59.3405 70.8291 58.8579 70.8291 58.0342C70.8291 57.2042 70.2795 56.728 69.2448 56.728H67.8674V59.3341H69.2448V59.3405Z" fill="white"/>
<path d="M74.2578 56.4141H74.607V61.2208H74.2578V56.4141Z" fill="white"/>
<path d="M81.9981 59.9532C81.9981 60.764 81.4032 61.2208 80.2198 61.2208H78.0664V56.4141H80.0775C81.1122 56.4141 81.7395 56.8452 81.7395 57.6431C81.7395 58.2094 81.4161 58.5826 80.9311 58.7435C81.6166 58.8722 81.9981 59.284 81.9981 59.9532ZM78.4156 56.7165V58.6341H80.0646C80.8988 58.6341 81.3838 58.3123 81.3838 57.6753C81.3838 57.0447 80.8988 56.7229 80.0646 56.7229H78.4156V56.7165ZM81.6425 59.921C81.6425 59.2325 81.1381 58.9301 80.2133 58.9301H78.4156V60.912H80.2133C81.1381 60.9184 81.6425 60.616 81.6425 59.921Z" fill="white"/>
<path d="M88.9552 59.9532C88.9552 60.764 88.3602 61.2208 87.1768 61.2208H85.0234V56.4141H87.0346C88.0692 56.4141 88.6965 56.8452 88.6965 57.6431C88.6965 58.2094 88.3732 58.5826 87.8882 58.7435C88.5801 58.8722 88.9552 59.284 88.9552 59.9532ZM85.3791 56.7165V58.6341H87.0281C87.8623 58.6341 88.3473 58.3123 88.3473 57.6753C88.3473 57.0447 87.8623 56.7229 87.0281 56.7229H85.3791V56.7165ZM88.606 59.921C88.606 59.2325 88.1016 58.9301 87.1768 58.9301H85.3791V60.912H87.1768C88.1016 60.9184 88.606 60.616 88.606 59.921Z" fill="white"/>
<path d="M91.5273 58.8216C91.5273 57.4252 92.5943 56.3828 94.0364 56.3828C95.472 56.3828 96.5455 57.4188 96.5455 58.8216C96.5455 60.2244 95.472 61.2604 94.0364 61.2604C92.5943 61.2539 91.5273 60.2115 91.5273 58.8216ZM96.1898 58.8216C96.1898 57.6054 95.2651 56.7046 94.0364 56.7046C92.8013 56.7046 91.8765 57.6054 91.8765 58.8216C91.8765 60.0378 92.8013 60.9386 94.0364 60.9386C95.2651 60.9322 96.1898 60.0378 96.1898 58.8216Z" fill="white"/>
<path d="M103.479 56.4141V61.2208H103.188L99.8961 57.0511V61.2208H99.5469V56.4141H99.8443L103.129 60.5838V56.4141H103.479Z" fill="white"/>
<path d="M113.185 56.7352H111.445V56.4199H115.274V56.7352H113.534V61.2267H113.185V56.7352Z" fill="white"/>
<path d="M121.268 61.2195L120.117 59.6108C119.961 59.6301 119.813 59.6429 119.645 59.6429H118.267V61.213H117.918V56.4062H119.651C120.867 56.4062 121.597 57.0111 121.597 58.0278C121.597 58.7871 121.184 59.3212 120.466 59.5335L121.675 61.213H121.268V61.2195ZM119.645 59.3405C120.679 59.3405 121.229 58.8579 121.229 58.0342C121.229 57.2042 120.679 56.728 119.645 56.728H118.267V59.3341H119.645V59.3405Z" fill="white"/>
<path d="M124.199 58.8216C124.199 57.4252 125.266 56.3828 126.708 56.3828C128.144 56.3828 129.217 57.4188 129.217 58.8216C129.217 60.2244 128.144 61.2604 126.708 61.2604C125.266 61.2539 124.199 60.2115 124.199 58.8216ZM128.862 58.8216C128.862 57.6054 127.937 56.7046 126.708 56.7046C125.473 56.7046 124.548 57.6054 124.548 58.8216C124.548 60.0378 125.473 60.9386 126.708 60.9386C127.937 60.9322 128.862 60.0378 128.862 58.8216Z" fill="white"/>
<path d="M135.892 58.0356C135.892 59.0459 135.161 59.6508 133.945 59.6508H132.568V61.2208H132.219V56.4141H133.952C135.161 56.4141 135.892 57.0189 135.892 58.0356ZM135.536 58.0356C135.536 57.2055 134.986 56.7294 133.952 56.7294H132.568V59.329H133.945C134.986 59.3355 135.536 58.8593 135.536 58.0356Z" fill="white"/>
<path d="M142.785 56.4141V61.2208H142.435V58.9365H139.209V61.2208H138.859V56.4141H139.209V58.6212H142.435V56.4141H142.785Z" fill="white"/>
<path d="M146.242 56.4141H146.591V61.2208H146.242V56.4141Z" fill="white"/>
<path d="M153.389 60.9055V61.2208H150.059V56.4141H153.285V56.7294H150.408V58.6212H152.982V58.9301H150.408V60.8991H153.389V60.9055Z" fill="white"/>
<path d="M155.957 60.604L156.119 60.3402C156.448 60.6812 157.063 60.9451 157.71 60.9451C158.673 60.9451 159.1 60.5268 159.1 60.0056C159.1 58.5642 156.086 59.4265 156.086 57.6569C156.086 56.9748 156.61 56.3828 157.794 56.3828C158.324 56.3828 158.873 56.5501 159.249 56.8139L159.119 57.0971C158.718 56.8204 158.227 56.6917 157.794 56.6917C156.856 56.6917 156.436 57.1228 156.436 57.6505C156.436 59.0919 159.449 58.2425 159.449 59.9863C159.449 60.6684 158.906 61.2539 157.71 61.2539C156.998 61.2539 156.306 60.9901 155.957 60.604Z" fill="white"/>
<path fill-rule="evenodd" clip-rule="evenodd" d="M0 0H194V74H0V0ZM193.282 0.707826H0.7178V73.2922H193.282V0.707826Z" fill="#010101"/>
</svg>
