<svg width="15" height="15" viewBox="0 0 15 15" fill="none" xmlns="http://www.w3.org/2000/svg">
<path d="M13.125 7.5C13.125 8.2925 12.7312 8.99375 12.1294 9.4175C12.1942 9.78798 12.1688 10.1686 12.0554 10.5272C11.9419 10.8858 11.7437 11.2118 11.4775 11.4775C11.2118 11.7437 10.8858 11.9419 10.5272 12.0554C10.1686 12.1688 9.78798 12.1942 9.4175 12.1294C9.20139 12.4372 8.91428 12.6884 8.5805 12.8617C8.24672 13.035 7.87609 13.1253 7.5 13.125C6.7075 13.125 6.00625 12.7312 5.5825 12.1294C5.21202 12.1942 4.83138 12.1688 4.4728 12.0553C4.11423 11.9418 3.78826 11.7436 3.5225 11.4775C3.25633 11.2118 3.05811 10.8858 2.94464 10.5272C2.83117 10.1686 2.80578 9.78798 2.87063 9.4175C2.56283 9.20139 2.31164 8.91428 2.13833 8.5805C1.96502 8.24672 1.87469 7.87609 1.875 7.5C1.875 6.7075 2.26875 6.00625 2.87063 5.5825C2.80578 5.21202 2.83117 4.83137 2.94464 4.47278C3.05811 4.11419 3.25633 3.78823 3.5225 3.5225C3.78826 3.25637 4.11423 3.05819 4.4728 2.94472C4.83138 2.83125 5.21202 2.80583 5.5825 2.87063C5.79865 2.56286 6.08576 2.3117 6.41954 2.1384C6.75331 1.9651 7.12392 1.87475 7.5 1.875C8.2925 1.875 8.99375 2.26875 9.4175 2.87063C9.78798 2.80583 10.1686 2.83125 10.5272 2.94472C10.8858 3.05819 11.2117 3.25637 11.4775 3.5225C11.7436 3.78826 11.9418 4.11423 12.0553 4.4728C12.1688 4.83138 12.1942 5.21202 12.1294 5.5825C12.4372 5.79862 12.6884 6.08572 12.8617 6.4195C13.035 6.75328 13.1253 7.12391 13.125 7.5Z" stroke="black" stroke-width="1.5" stroke-linecap="round" stroke-linejoin="round"/>
</svg>
