<svg width="21" height="20" viewBox="0 0 21 20" fill="none" xmlns="http://www.w3.org/2000/svg">
<path d="M18.8125 5.625V14.375C18.8125 14.8723 18.615 15.3492 18.2633 15.7008C17.9117 16.0525 17.4348 16.25 16.9375 16.25H4.4375C3.94022 16.25 3.46331 16.0525 3.11167 15.7008C2.76004 15.3492 2.5625 14.8723 2.5625 14.375V5.625M18.8125 5.625C18.8125 5.12772 18.615 4.65081 18.2633 4.29917C17.9117 3.94754 17.4348 3.75 16.9375 3.75H4.4375C3.94022 3.75 3.46331 3.94754 3.11167 4.29917C2.76004 4.65081 2.5625 5.12772 2.5625 5.625M18.8125 5.625V5.8275C18.8125 6.14762 18.7306 6.46242 18.5745 6.74191C18.4184 7.0214 18.1934 7.25628 17.9208 7.42417L11.6708 11.27C11.3752 11.4521 11.0347 11.5485 10.6875 11.5485C10.3403 11.5485 9.99983 11.4521 9.70417 11.27L3.45417 7.425C3.1816 7.25711 2.95656 7.02224 2.80047 6.74275C2.64439 6.46325 2.56246 6.14845 2.5625 5.82833V5.625" stroke="black" stroke-width="1.5" stroke-linecap="round" stroke-linejoin="round"/>
</svg>
