<svg width="25" height="25" viewBox="0 0 25 25" fill="none" xmlns="http://www.w3.org/2000/svg">
<g clip-path="url(#clip0_428_1400)">
<path d="M25.0293 5.21875C24.1055 5.62891 23.1152 5.9043 22.0742 6.0293C23.1367 5.39258 23.9531 4.38477 24.3359 3.18555C23.3438 3.77344 22.2402 4.20117 21.0703 4.43164C20.1328 3.43164 18.7969 2.80859 17.3184 2.80859C14.4785 2.80859 12.1758 5.10937 12.1758 7.94922C12.1758 8.35156 12.2227 8.74414 12.3105 9.12109C8.03711 8.90625 4.25 6.85938 1.71289 3.74805C1.26953 4.50977 1.01758 5.39258 1.01758 6.33398C1.01758 8.11719 1.92383 9.69141 3.30469 10.6152C2.46094 10.5879 1.66797 10.3555 0.974609 9.9707C0.974609 9.99219 0.974609 10.0137 0.974609 10.0352C0.974609 12.5273 2.74805 14.6035 5.09766 15.0781C4.66797 15.1953 4.21289 15.2578 3.74414 15.2578C3.41211 15.2578 3.08984 15.2266 2.77539 15.1641C3.43164 17.2051 5.33008 18.6953 7.57812 18.7363C5.82031 20.1152 3.60352 20.9355 1.19336 20.9355C0.777344 20.9355 0.369141 20.9121 -0.03125 20.8633C2.24219 22.3242 4.94531 23.1738 7.84961 23.1738C17.3066 23.1738 22.4785 15.3398 22.4785 8.54688C22.4785 8.32422 22.4727 8.09961 22.4648 7.88086C23.4688 7.15625 24.3398 6.25 25.0293 5.21875Z" fill="black"/>
</g>
<defs>
<clipPath id="clip0_428_1400">
<rect width="25" height="25" fill="white"/>
</clipPath>
</defs>
</svg>
