<svg width="41" height="41" viewBox="0 0 41 41" fill="none" xmlns="http://www.w3.org/2000/svg">
<circle cx="20.5" cy="20.5" r="20" stroke="#D2D2D2"/>
<g clip-path="url(#clip0_391_1001)">
<path d="M21.4752 26.5007V26.5001H20.9752H20.9647H20.9541H20.9435H20.9329H20.9224H20.9118H20.9012H20.8906H20.88H20.8695H20.8589H20.8483H20.8377H20.8271H20.8166H20.806H20.7954H20.7848H20.7743H20.7637H20.7531H20.7425H20.7319H20.7214H20.7108H20.7002H20.6896H20.6791H20.6685H20.6579H20.6473H20.6367H20.6262H20.6156H20.605H20.5944H20.5838H20.5733H20.5627H20.5521H20.5415H20.531H20.5204H20.5098H20.4992H20.4886H20.4781H20.4675H20.4569H20.4463H20.4358H20.4252H20.4146H20.404H20.3934H20.3829H20.3723H20.3617H20.3511H20.3406H20.33H20.3194H20.3088H20.2982H20.2877H20.2771H20.2665H20.2559H20.2454H20.2348H20.2242H20.2136H20.203H20.1925H20.1819H20.1713H20.1607H20.1502H20.1396H20.129H20.1184H20.1078H20.0973H20.0867H20.0761H20.0655H20.055H20.0444H20.0338H20.0232H20.0126H20.0021H19.9915H19.9809H19.9703H19.9598H19.9492H19.9386H19.928H19.9175H19.9069H19.8963H19.8857H19.8751H19.8646H19.854H19.8434H19.8328H19.8223H19.8117H19.8011H19.7905H19.7799H19.7694H19.7588H19.7482H19.7376H19.7271H19.7165H19.7059H19.6953H19.6847H19.6742H19.6636H19.653H19.6424H19.6319H19.6213H19.6107H19.6001H19.5896H19.579H19.5684H19.5578H19.5472H19.5367H19.5261H19.5155H19.5049H19.4944H19.4838H19.4732H19.4626H19.452H19.4415H19.4309H19.4203H19.4097H19.3992H19.3886H19.378H19.3674H19.3569H19.3463H19.3357H19.3251H19.3145H19.304H19.2934H19.2828H19.2722H19.2617H19.2511H19.2405H19.2299H19.2194H19.2088H19.1982H19.1876H19.177H19.1665H19.1559H19.1453H19.1347H19.1242H19.1136H19.103H19.0924H19.0818H19.0713H19.0607H19.0501H19.0395H19.029H19.0184H19.0078H18.9972H18.9867H18.9761H18.9655H18.9549H18.9443H18.9338H18.9232H18.9126H18.902H18.8915H18.8809H18.8703H18.8597H18.8492H18.8386H18.828H18.8174H18.8068H18.7963H18.7857H18.7751H18.7645H18.754H18.7434H18.7328H18.7222H18.7117H18.7011H18.6905H18.6799H18.6693H18.6588H18.6482H18.6376H18.627H18.6165H18.6059H18.5953H18.5847H18.5742H18.5636H18.553H18.5424H18.5318H18.5213H18.5107H18.5001H18.4895H18.479H18.4684H18.4578H18.4472H18.4367H18.4261H18.4155H18.4049H18.3943H18.3838H18.3732H18.3626H18.352H18.3415H18.3309H18.3203H18.3097H18.2992H18.2886H18.278H18.2674H18.2568H18.2463H18.2357H18.2251H18.2145H18.204H18.1934H18.1828H18.1722H18.1617H18.1511H18.1405H18.1299H18.1193H18.1088H18.0982H18.0876H18.077H18.0665H18.0559H18.0453H18.0347H18.0242H18.0136H18.003H17.9924H17.9818H17.9713H17.9607H17.9501H17.9395H17.929H17.9184H17.9078H17.8972H17.8867H17.8761H17.8655H17.8549H17.8443H17.8338H17.8232H17.8126H17.802H17.7915H17.7809H17.7703H17.7597H17.7492H17.7386H17.728H17.7174H17.7068H17.6963H17.6857H17.6751H17.6645H17.654H17.6434H17.6328H17.6222H17.6117H17.6011H17.5905H17.5799H17.5693H17.5588H17.5482H17.5376H17.527H17.5165H17.5059H17.4953H17.4847H17.4742H17.4636H17.453H17.4424H17.4318H17.4213H17.4107H17.4001H17.3895H17.379H17.3684H17.3578H17.3472H17.3367H17.3261H17.3155H17.3049H17.2943H17.2838H17.2732H17.2626H17.252H17.2415H17.2309H17.2203H17.2097H17.1992H17.1886H17.178H17.1674H17.1568H17.1463H17.1357H17.1251H17.1145H17.104H17.0934H17.0828H17.0722H17.0616H17.0511H17.0405H17.0299H17.0193H17.0088H16.9982H16.9876H16.977H16.9665H16.9559H16.9453H16.9347H16.9241H16.9136H16.903H16.8924H16.8818H16.8713H16.8607H16.8501H16.8395H16.8289H16.8184H16.8078H16.7972H16.7866H16.7761H16.7655H16.7549H16.7443H16.7338H16.7232H16.7126H16.702H16.6914H16.6809H16.6703H16.6597H16.6491H16.6386H16.628H16.6174H16.6068H16.5962H16.5857H16.5751H16.5645H16.5539H16.5434H16.5328H16.5222H16.5116H16.501H16.4905H16.4799H16.4693H16.4587H16.4482H16.4376H16.427H16.4164H16.4058H16.3953H16.3847H16.3741H16.3635H16.353H16.3424H16.3318H16.3212H16.3106H16.3001H16.2895H16.2789H16.2683H16.2578H16.2472H16.2366H16.226H16.2154H16.2049H16.1943H16.1837H16.1731H16.1626H16.152H16.1414H16.1308H16.1202H16.1097H16.0991H16.0885H16.0779H16.0674H16.0568H16.0462H16.0356H16.025H16.0145H16.0039H15.9933H15.9827H15.9722H15.9616H15.951H15.9404H15.9298H15.9193H15.9087H15.8981H15.8875H15.877H15.8664H15.8558H15.8452H15.8346H15.8241H15.8135H15.8029H15.7923H15.7818H15.7712H15.7606H15.75H15.7394H15.7289H15.7183H15.7077H15.6971H15.6865H15.676H15.6654H15.6548H15.6442H15.6337H15.6231H15.6125H15.6019H15.5913H15.5808H15.5702H15.5596C15.5373 26.5001 15.5175 26.4997 15.5001 26.4989C15.4998 26.4794 15.5001 26.4571 15.5011 26.4316L15.5011 26.4314C15.598 23.7485 17.6756 21.7026 20.2612 21.708L20.2613 21.708C20.3881 21.7083 20.5134 21.708 20.6375 21.7077C21.3808 21.7058 22.078 21.7041 22.7529 21.8225L22.753 21.8225C24.8423 22.1888 26.5152 24.2894 26.4999 26.5001C26.4992 26.5001 26.4984 26.5001 26.4976 26.5001H26.4973C25.1167 26.5009 23.7359 26.5008 22.355 26.5007C22.0617 26.5007 21.7685 26.5007 21.4752 26.5007Z" stroke="#55585B"/>
<path d="M21.0104 13.5C22.6839 13.5037 24.0734 14.8974 24.1005 16.6364L24.1004 16.696C24.0962 18.4757 22.6864 19.8918 20.9761 19.8833C19.2876 19.8749 17.8855 18.438 17.8985 16.6762L17.8985 16.6762C17.9115 14.901 19.3118 13.4963 21.0104 13.5Z" stroke="#55585B"/>
</g>
<defs>
<clipPath id="clip0_391_1001">
<rect width="12" height="14" fill="white" transform="translate(15 13)"/>
</clipPath>
</defs>
</svg>
