<svg width="15" height="15" viewBox="0 0 15 15" fill="none" xmlns="http://www.w3.org/2000/svg">
<path d="M1.40625 1.82324H2.2725C2.59125 1.82324 2.86938 2.0317 2.95188 2.33071L3.19125 3.20403M3.19125 3.20403C6.6729 3.10916 10.1512 3.48551 13.5263 4.32228C13.0113 5.81368 12.3994 7.26254 11.6988 8.66035H4.6875M3.19125 3.20403L4.6875 8.66035M4.6875 8.66035C4.19022 8.66035 3.71331 8.85244 3.36168 9.19436C3.01004 9.53628 2.8125 10 2.8125 10.4836H12.6563M3.75 12.3068C3.75 12.4277 3.70061 12.5436 3.61271 12.6291C3.5248 12.7146 3.40557 12.7626 3.28125 12.7626C3.15693 12.7626 3.0377 12.7146 2.94979 12.6291C2.86189 12.5436 2.8125 12.4277 2.8125 12.3068C2.8125 12.1859 2.86189 12.07 2.94979 11.9845C3.0377 11.899 3.15693 11.851 3.28125 11.851C3.40557 11.851 3.5248 11.899 3.61271 11.9845C3.70061 12.07 3.75 12.1859 3.75 12.3068ZM11.7188 12.3068C11.7188 12.4277 11.6694 12.5436 11.5815 12.6291C11.4935 12.7146 11.3743 12.7626 11.25 12.7626C11.1257 12.7626 11.0065 12.7146 10.9185 12.6291C10.8306 12.5436 10.7813 12.4277 10.7813 12.3068C10.7813 12.1859 10.8306 12.07 10.9185 11.9845C11.0065 11.899 11.1257 11.851 11.25 11.851C11.3743 11.851 11.4935 11.899 11.5815 11.9845C11.6694 12.07 11.7188 12.1859 11.7188 12.3068Z" stroke="white" stroke-width="1.5" stroke-linecap="round" stroke-linejoin="round"/>
</svg>
