<svg width="28" height="26" viewBox="0 0 28 26" fill="none" xmlns="http://www.w3.org/2000/svg">
<path d="M1 1H2.848C3.528 1 4.12133 1.44471 4.29733 2.08259L4.808 3.94569M4.808 3.94569C12.2355 3.74329 19.6559 4.54617 26.856 6.33128C25.7573 9.51294 24.452 12.6038 22.9573 15.5858H8M4.808 3.94569L8 15.5858M8 15.5858C6.93913 15.5858 5.92172 15.9956 5.17157 16.725C4.42143 17.4545 4 18.4438 4 19.4754H25M6 23.3649C6 23.6228 5.89464 23.8702 5.70711 24.0525C5.51957 24.2349 5.26522 24.3373 5 24.3373C4.73478 24.3373 4.48043 24.2349 4.29289 24.0525C4.10536 23.8702 4 23.6228 4 23.3649C4 23.107 4.10536 22.8597 4.29289 22.6773C4.48043 22.495 4.73478 22.3925 5 22.3925C5.26522 22.3925 5.51957 22.495 5.70711 22.6773C5.89464 22.8597 6 23.107 6 23.3649ZM23 23.3649C23 23.6228 22.8946 23.8702 22.7071 24.0525C22.5196 24.2349 22.2652 24.3373 22 24.3373C21.7348 24.3373 21.4804 24.2349 21.2929 24.0525C21.1054 23.8702 21 23.6228 21 23.3649C21 23.107 21.1054 22.8597 21.2929 22.6773C21.4804 22.495 21.7348 22.3925 22 22.3925C22.2652 22.3925 22.5196 22.495 22.7071 22.6773C22.8946 22.8597 23 23.107 23 23.3649Z" stroke="black" stroke-width="1.5" stroke-linecap="round" stroke-linejoin="round"/>
</svg>
